<?xml version="1.0" standalone="no"?>
<!DOCTYPE svg PUBLIC "-//W3C//DTD SVG 20010904//EN"
 "http://www.w3.org/TR/2001/REC-SVG-20010904/DTD/svg10.dtd">
<svg version="1.0" xmlns="http://www.w3.org/2000/svg"
 width="32.000000pt" height="32.000000pt" viewBox="0 0 32.000000 32.000000"
 preserveAspectRatio="xMidYMid meet">

<g transform="translate(0.000000,32.000000) scale(0.100000,-0.100000)"
fill="#000000" stroke="none">
<path d="M141 272 c-9 -22 -9 -35 0 -55 7 -15 15 -27 19 -27 4 0 12 12 19 27
9 20 9 33 0 55 -6 15 -15 28 -19 28 -4 0 -13 -13 -19 -28z"/>
<path d="M77 33 c-4 -3 -7 -12 -7 -20 0 -10 22 -13 91 -13 79 0 90 2 85 16 -3
9 -6 18 -6 20 0 7 -156 4 -163 -3z"/>
</g>
</svg>
